<?xml version="1.0" standalone="no"?>
<!DOCTYPE svg PUBLIC "-//W3C//DTD SVG 20010904//EN"
 "http://www.w3.org/TR/2001/REC-SVG-20010904/DTD/svg10.dtd">
<svg version="1.0" xmlns="http://www.w3.org/2000/svg"
 width="900.000000pt" height="900.000000pt" viewBox="0 0 900.000000 900.000000"
 preserveAspectRatio="xMidYMid meet">

<g transform="translate(0.000000,900.000000) scale(0.100000,-0.100000)"
fill="#000000" stroke="none">
<path d="M3895 8973 c-435 -26 -618 -42 -955 -84 -285 -35 -671 -98 -850 -139
-926 -211 -1479 -691 -1754 -1525 -124 -373 -229 -1032 -293 -1835 -26 -328
-26 -1452 0 -1780 45 -569 127 -1178 203 -1515 214 -954 745 -1531 1647 -1791
392 -113 1208 -224 1947 -265 290 -16 1281 -6 1545 15 744 60 1368 156 1733
266 937 283 1440 882 1636 1950 53 287 104 712 145 1210 55 655 71 865 71 942
0 193 -100 1539 -140 1898 -61 534 -158 906 -326 1246 -269 545 -734 917
-1394 1117 -435 131 -1201 243 -1964 287 -157 9 -1118 11 -1251 3z m-405
-2375 c234 -304 678 -881 988 -1282 309 -401 561 -735 560 -741 -2 -6 -473
-620 -1048 -1363 l-1045 -1351 -542 -1 c-299 0 -543 2 -543 5 0 3 468 611
1041 1351 572 740 1042 1351 1045 1357 2 7 -439 587 -981 1290 -542 702 -985
1279 -985 1282 0 3 244 5 543 5 l542 -1 425 -551z m3518 544 c-6 -18 -1393
-1821 -1400 -1822 -4 0 -128 158 -277 352 l-270 351 97 126 c53 70 248 323
432 564 l335 437 543 0 c299 0 542 -4 540 -8z m-638 -4279 c415 -542 757 -989
758 -994 2 -5 -228 -9 -540 -9 l-543 1 -427 557 c-234 306 -456 596 -493 643
l-66 86 271 352 c150 193 275 351 278 350 4 0 347 -444 762 -986z"/>
</g>
</svg>
