<?xml version="1.0" encoding="utf-8"?>
<!-- Generator: Adobe Illustrator 24.0.0, SVG Export Plug-In . SVG Version: 6.00 Build 0)  -->
<svg version="1.1" id="Layer_1" xmlns="http://www.w3.org/2000/svg" xmlns:xlink="http://www.w3.org/1999/xlink" x="0px" y="0px"
	 viewBox="0 0 25 26" style="enable-background:new 0 0 25 26;" xml:space="preserve">
<style type="text/css">
	.st0{fill:#FFFFFF;}
</style>
<path class="st0" d="M16.3,7.6c4.7-1.6,8.5,1,8.5,5.7c-0.1,7.2-6.1,12.5-13.6,11.9C4.5,24.6-0.6,18.1,0.4,11.5C1.5,4,8-0.5,14.8,1.1
	c-0.8,1.8-2.2,3.6-2.3,5.5c-0.1,1.9,1.2,3.8,2,5.9c-2.7,1-5.2,0-7.2-2.4c-2.1,2.2-0.8,6.2,1.2,7.9c2.6,2.1,6.1,1.9,8.4-0.4
	C19.7,14.9,19.5,11.4,16.3,7.6z"/>
</svg>
