<svg id="Layer_1" data-name="Layer 1" xmlns="http://www.w3.org/2000/svg" viewBox="0 0 227.25 36.05"><defs><style>.cls-1{fill:#0fe6b0;}</style></defs><path d="M4.33,7.53a2.85,2.85,0,0,1-2.1-.85,2.83,2.83,0,0,1-.85-2,2.93,2.93,0,0,1,.85-2.08,2.83,2.83,0,0,1,2.1-.87,2.75,2.75,0,0,1,2.05.87,2.89,2.89,0,0,1,.85,2.08,2.79,2.79,0,0,1-.85,2.05A2.77,2.77,0,0,1,4.33,7.53ZM2.13,37.08v-25H6.48v25Z" transform="translate(-1.38 -1.68)"/><path d="M22.58,11.43a9.27,9.27,0,0,1,7.05,2.77,10.44,10.44,0,0,1,2.65,7.53V37.08H27.93V22a6.47,6.47,0,0,0-1.65-4.73,6.11,6.11,0,0,0-4.55-1.67,7.07,7.07,0,0,0-5.25,2q-2,2-2,6.23V37.08H10.13v-25h4.35v3.6A8.9,8.9,0,0,1,22.58,11.43Z" transform="translate(-1.38 -1.68)"/><path d="M52.48,12.08h4.7l-10,25h-5.1l-10-25h4.7l7.85,20.35Z" transform="translate(-1.38 -1.68)"/><path d="M78,33.93a13.37,13.37,0,0,1-18.67,0,12.66,12.66,0,0,1-3.83-9.35A13,13,0,0,1,68.63,11.43,12.81,12.81,0,0,1,78,15.23a12.61,12.61,0,0,1,3.85,9.35A12.61,12.61,0,0,1,78,33.93Zm-9.35-.45a8.71,8.71,0,0,0,8.85-8.9,8.71,8.71,0,0,0-8.85-8.9,8.51,8.51,0,0,0-6.25,2.55,8.62,8.62,0,0,0-2.55,6.35,8.62,8.62,0,0,0,2.55,6.35A8.51,8.51,0,0,0,68.63,33.48Z" transform="translate(-1.38 -1.68)"/><path d="M86.18,7.53a2.9,2.9,0,0,1-3-2.9,2.93,2.93,0,0,1,.85-2.08,2.83,2.83,0,0,1,2.1-.87,2.75,2.75,0,0,1,2,.87,2.89,2.89,0,0,1,.85,2.08,2.79,2.79,0,0,1-.85,2.05A2.77,2.77,0,0,1,86.18,7.53ZM84,37.08v-25h4.35v25Z" transform="translate(-1.38 -1.68)"/><path d="M103.73,37.73A12.87,12.87,0,0,1,90.58,24.58a12.85,12.85,0,0,1,13.15-13.15,12.65,12.65,0,0,1,6.65,1.77,11.13,11.13,0,0,1,4.4,4.78l-3.65,2.1a7.44,7.44,0,0,0-2.92-3.2,9,9,0,0,0-10.75,1.35,8.65,8.65,0,0,0-2.53,6.35,8.58,8.58,0,0,0,2.53,6.3,8.46,8.46,0,0,0,6.27,2.55,8.64,8.64,0,0,0,4.5-1.18,7.81,7.81,0,0,0,3-3.17l3.7,2.15a12.05,12.05,0,0,1-4.6,4.72A12.74,12.74,0,0,1,103.73,37.73Z" transform="translate(-1.38 -1.68)"/><path d="M119,26.58a8.26,8.26,0,0,0,3.08,5.2,9.57,9.57,0,0,0,6,1.85q5,0,7.2-3.65l3.7,2.1q-3.65,5.66-11,5.65A13,13,0,0,1,118.26,34a12.73,12.73,0,0,1-3.73-9.42,12.94,12.94,0,0,1,3.65-9.4,12.61,12.61,0,0,1,9.45-3.75,11.52,11.52,0,0,1,9,3.87,13.54,13.54,0,0,1,3.47,9.33,13.21,13.21,0,0,1-.15,1.95Zm8.65-11A8.29,8.29,0,0,0,119,22.78h16.7a8.33,8.33,0,0,0-2.8-5.4A8,8,0,0,0,127.63,15.53Z" transform="translate(-1.38 -1.68)"/><path class="cls-1" d="M154.53,11.43a9.3,9.3,0,0,1,7.05,2.77,10.44,10.44,0,0,1,2.65,7.53V37.08h-4.35V22a6.47,6.47,0,0,0-1.65-4.73,6.11,6.11,0,0,0-4.55-1.67,7,7,0,0,0-5.25,2q-2,2-2,6.23V37.08h-4.35v-25h4.35v3.6A8.9,8.9,0,0,1,154.53,11.43Z" transform="translate(-1.38 -1.68)"/><path class="cls-1" d="M170.33,26.58a8.22,8.22,0,0,0,3.08,5.2,9.55,9.55,0,0,0,6,1.85q5,0,7.2-3.65l3.7,2.1q-3.65,5.66-11,5.65A13,13,0,0,1,169.61,34a12.73,12.73,0,0,1-3.73-9.42,12.94,12.94,0,0,1,3.65-9.4A12.59,12.59,0,0,1,179,11.43a11.52,11.52,0,0,1,9,3.87,13.54,13.54,0,0,1,3.47,9.33,13.21,13.21,0,0,1-.15,1.95Zm8.65-11a8.29,8.29,0,0,0-8.65,7.25H187a8.33,8.33,0,0,0-2.8-5.4A8,8,0,0,0,179,15.53Z" transform="translate(-1.38 -1.68)"/><path class="cls-1" d="M228.63,16.28H222V29.83a3.75,3.75,0,0,0,.73,2.62,2.93,2.93,0,0,0,2.22.8c1,0,2.23,0,3.7-.07v3.9q-5.7.75-8.35-.93t-2.65-6.32V16.28h-7.95l3-4.2h4.95V6.38L222,5.08v7h6.65Z" transform="translate(-1.38 -1.68)"/><polygon class="cls-1" points="205.5 19.1 211.95 10.4 206.95 10.4 203 15.73 205.5 19.1"/><polygon class="cls-1" points="193.9 10.4 188.9 10.4 197.95 22.55 188.35 35.4 193.35 35.4 202.95 22.55 193.9 10.4"/><polygon class="cls-1" points="202.99 29.31 207.5 35.4 212.5 35.4 205.5 25.95 202.99 29.31"/></svg>